<svg width="32" height="32" viewBox="0 0 32 32" fill="none" xmlns="http://www.w3.org/2000/svg">
<path d="M23.9998 16.6667C24.6891 16.6674 25.37 16.5154 25.9936 16.2217C26.6172 15.9279 27.1679 15.4997 27.6063 14.9678C28.0446 14.4358 28.3597 13.8134 28.5288 13.1451C28.698 12.4769 28.717 11.7795 28.5845 11.1031C28.4521 10.4266 28.1714 9.78794 27.7627 9.23289C27.3539 8.67784 26.8273 8.22023 26.2207 7.89294C25.6141 7.56565 24.9425 7.3768 24.2541 7.33998C23.5658 7.30316 22.8779 7.41928 22.2398 7.67999C21.7625 6.41074 20.9095 5.31724 19.7946 4.54537C18.6796 3.77351 17.3559 3.35999 15.9998 3.35999C14.6438 3.35999 13.32 3.77351 12.2051 4.54537C11.0902 5.31724 10.2372 6.41074 9.75983 7.67999C9.12174 7.41928 8.43382 7.30316 7.74551 7.33998C7.0572 7.3768 6.38559 7.56565 5.77896 7.89294C5.17232 8.22023 4.64572 8.67784 4.23701 9.23289C3.82829 9.78794 3.54761 10.4266 3.41513 11.1031C3.28265 11.7795 3.30166 12.4769 3.47081 13.1451C3.63995 13.8134 3.95503 14.4358 4.39338 14.9678C4.83174 15.4997 5.38249 15.9279 6.00606 16.2217C6.62963 16.5154 7.31053 16.6674 7.99983 16.6667" stroke="#5840BA" stroke-width="2" stroke-linecap="round" stroke-linejoin="round"/>
<path d="M16 28.6666C17.1046 28.6666 18 27.7712 18 26.6666C18 25.5621 17.1046 24.6666 16 24.6666C14.8954 24.6666 14 25.5621 14 26.6666C14 27.7712 14.8954 28.6666 16 28.6666Z" stroke="#5840BA" stroke-width="2" stroke-linejoin="round"/>
<path d="M6.66602 28.6666C7.77059 28.6666 8.66602 27.7712 8.66602 26.6666C8.66602 25.5621 7.77059 24.6666 6.66602 24.6666C5.56145 24.6666 4.66602 25.5621 4.66602 26.6666C4.66602 27.7712 5.56145 28.6666 6.66602 28.6666Z" stroke="#5840BA" stroke-width="2" stroke-linejoin="round"/>
<path d="M25.334 28.6666C26.4386 28.6666 27.334 27.7712 27.334 26.6666C27.334 25.5621 26.4386 24.6666 25.334 24.6666C24.2294 24.6666 23.334 25.5621 23.334 26.6666C23.334 27.7712 24.2294 28.6666 25.334 28.6666Z" stroke="#5840BA" stroke-width="2" stroke-linejoin="round"/>
<path d="M15.9795 14.6868V24.6668" stroke="#5840BA" stroke-width="2" stroke-linecap="round" stroke-linejoin="round"/>
<path d="M6.66602 24.6666V22C6.66602 21.6463 6.80649 21.3072 7.05654 21.0572C7.30659 20.8071 7.64573 20.6666 7.99935 20.6666H10.666C11.0196 20.6666 11.3588 20.5262 11.6088 20.2761C11.8589 20.0261 11.9993 19.6869 11.9993 19.3333V14.6666" stroke="#5840BA" stroke-width="2" stroke-linecap="round" stroke-linejoin="round"/>
<path d="M25.3333 24.6666V22C25.3333 21.6463 25.1929 21.3072 24.9428 21.0572C24.6928 20.8071 24.3536 20.6666 24 20.6666H21.3333C20.9797 20.6666 20.6406 20.5262 20.3905 20.2761C20.1405 20.0261 20 19.6869 20 19.3333V14.6666" stroke="#5840BA" stroke-width="2" stroke-linecap="round" stroke-linejoin="round"/>
</svg>
