<svg width="90" height="69" viewBox="0 0 90 69" fill="none" xmlns="http://www.w3.org/2000/svg">
<path d="M0.928942 17.6508C1.79332 16.1912 2.79234 14.8158 3.91294 13.5423C5.59687 11.8198 7.47744 10.3011 9.51594 9.01764C22.3033 1.38931 36.3315 -1.60819 50.687 2.10735C65.3136 5.93325 75.6624 15.5685 80.3881 30.3635C82.7044 37.7427 83.5506 45.5047 82.8787 53.2096C82.7633 54.6095 82.6876 56.0207 82.5396 58.337C85.1031 56.4569 87.0704 55.0293 89.0292 53.5967L89.7952 54.2699C89.6402 54.9521 89.3958 55.6108 89.0683 56.2289C87.0485 59.1273 85.0054 61.9661 82.894 64.8232C81.5525 66.6467 80.0913 68.5975 77.5142 68.2412C74.7625 67.8073 73.5596 65.5308 72.9897 63.1579C72.2366 59.8822 71.6848 56.5634 71.3371 53.2203C71.257 52.5389 72.1921 51.7394 72.6271 50.9859C73.3805 51.4209 74.5041 51.7348 74.7828 52.3922C75.6593 54.434 76.2053 56.6083 76.8729 58.7719C77.1218 58.5808 77.3504 58.5049 77.3708 58.3896C81.6417 35.4521 74.303 16.1231 53.45 6.6817C52.4288 6.21609 51.3615 5.8592 50.2657 5.61694C34.5705 2.2018 20.0045 4.831 6.73656 13.9717C5.043 15.3263 3.45227 16.8047 1.97746 18.3947L0.928942 17.6508Z" fill="#5840BA"/>
</svg>
