<svg width="106" height="52" viewBox="0 0 106 52" fill="none" xmlns="http://www.w3.org/2000/svg">
<g clip-path="url(#clip0_67_1320)">
<path d="M94.8382 25.4788C94.8382 29.2327 91.9413 32.3429 88.0257 32.3429C84.1089 32.3429 81.2676 29.2327 81.2676 25.4788C81.2676 21.7235 84.1102 18.612 88.0257 18.612C91.9413 18.612 94.8382 21.7248 94.8382 25.4788Z" fill="#FFD43D"/>
<path d="M63.0361 25.2642C63.0361 29.0724 60.0332 31.9151 56.2237 31.9151C52.4697 31.9151 49.4668 29.0711 49.4668 25.2642C49.4668 21.4547 52.4697 18.6663 56.2249 18.6663C60.0332 18.6663 63.0361 21.456 63.0361 25.2642Z" fill="#FF0C81"/>
<path d="M25.9496 32.3429C29.8651 32.3429 32.762 29.2327 32.762 25.4788C32.762 21.7235 29.8651 18.612 25.9496 18.612C22.0327 18.612 19.1914 21.7235 19.1914 25.4775C19.1914 29.2327 22.034 32.3429 25.9496 32.3429Z" fill="#11EEFC"/>
<path d="M88.0252 39.4785C79.8723 39.4785 73.6506 33.1483 73.6506 25.4245C73.6506 17.7537 79.9266 11.4247 88.0252 11.4247C96.2325 11.4247 102.454 17.808 102.454 25.4245C102.454 33.1483 96.1782 39.4772 88.0252 39.4772V39.4785ZM88.0252 32.3429C91.9421 32.3429 94.8377 29.2327 94.8377 25.4788C94.8377 21.7235 91.9421 18.612 88.0252 18.612C84.1097 18.612 81.2671 21.7235 81.2671 25.4775C81.2671 29.2327 84.1097 32.3429 88.0252 32.3429ZM55.6888 51.7073C49.4671 51.7073 44.6932 48.972 42.2798 44.0365L48.6088 40.6045C49.789 42.9106 51.9878 44.7346 55.5815 44.7346C60.0878 44.7346 63.1437 41.5701 63.1437 36.367V35.8836C61.6959 37.7076 59.1221 39.1024 55.3669 39.1024C47.9107 39.1024 41.9579 33.3099 41.9579 25.4245C41.9579 17.7537 48.1796 11.479 56.3325 11.479C64.6458 11.479 70.7615 17.4318 70.7615 25.4245V36.1525C70.7615 45.5929 64.3239 51.7073 55.6888 51.7073ZM56.2252 31.915C60.0335 31.915 63.0377 29.0711 63.0377 25.2642C63.0377 21.4547 60.0335 18.6663 56.2252 18.6663C52.47 18.6663 49.4671 21.456 49.4671 25.2642C49.4671 29.0724 52.47 31.915 56.2252 31.915ZM25.9493 39.4785C17.7964 39.4785 11.5747 33.1483 11.5747 25.4245C11.5747 17.7537 17.8494 11.4247 25.9493 11.4247C34.1553 11.4247 40.3782 17.808 40.3782 25.4245C40.3782 33.1483 34.1023 39.4772 25.9493 39.4772V39.4785ZM25.9493 32.3429C29.8649 32.3429 32.7618 29.2327 32.7618 25.4788C32.7618 21.7235 29.8649 18.612 25.9493 18.612C22.0325 18.612 19.1912 21.7235 19.1912 25.4775C19.1912 29.2327 22.0338 32.3429 25.9493 32.3429ZM0 0H7.61649V38.7805H0V0ZM106 8.40244C106 9.25954 105.66 10.0815 105.053 10.6876C104.447 11.2937 103.625 11.6341 102.768 11.6341C101.911 11.6341 101.089 11.2937 100.483 10.6876C99.8771 10.0815 99.5366 9.25954 99.5366 8.40244C99.5366 7.54534 99.8771 6.72334 100.483 6.11728C101.089 5.51121 101.911 5.17073 102.768 5.17073C103.625 5.17073 104.447 5.51121 105.053 6.11728C105.66 6.72334 106 7.54534 106 8.40244Z" fill="#5840BA"/>
</g>
<defs>
<clipPath id="clip0_67_1320">
<rect width="106" height="51.7073" fill="white"/>
</clipPath>
</defs>
</svg>
