<svg width="26" height="32" viewBox="0 0 26 32" fill="none" xmlns="http://www.w3.org/2000/svg">
<path d="M24.4 9V23C24.4 28.6 23 30 17.4 30H9C3.4 30 2 28.6 2 23V9C2 3.4 3.4 2 9 2H17.4C23 2 24.4 3.4 24.4 9Z" stroke="#5840BA" stroke-width="2.1" stroke-linecap="round" stroke-linejoin="round"/>
<path d="M16.0004 6.8999H10.4004" stroke="#5840BA" stroke-width="2.1" stroke-linecap="round" stroke-linejoin="round"/>
<path d="M13.2003 25.9401C14.3987 25.9401 15.3703 24.9686 15.3703 23.7701C15.3703 22.5716 14.3987 21.6001 13.2003 21.6001C12.0018 21.6001 11.0303 22.5716 11.0303 23.7701C11.0303 24.9686 12.0018 25.9401 13.2003 25.9401Z" stroke="#5840BA" stroke-width="2.1" stroke-linecap="round" stroke-linejoin="round"/>
</svg>
