<svg width="32" height="32" viewBox="0 0 32 32" fill="none" xmlns="http://www.w3.org/2000/svg">
<path d="M14.3331 29.9999H17.6931C18.9731 29.9999 19.7998 29.0932 19.5598 27.9866L19.0131 25.5733H13.0131L12.4664 27.9866C12.2264 29.0266 13.1331 29.9999 14.3331 29.9999Z" stroke="#5840BA" stroke-width="2" stroke-linecap="round" stroke-linejoin="round"/>
<path d="M19.0134 25.5601L21.3201 23.5067C22.6134 22.36 22.6667 21.5599 21.6401 20.2666L17.5734 15.1067C16.7201 14.0267 15.3201 14.0267 14.4667 15.1067L10.4001 20.2666C9.37341 21.5599 9.3734 22.4 10.7201 23.5067L13.0267 25.5601" stroke="#5840BA" stroke-width="2" stroke-linecap="round" stroke-linejoin="round"/>
<path d="M16.0137 14.8267V18.2001" stroke="#5840BA" stroke-width="2" stroke-linecap="round" stroke-linejoin="round"/>
<path d="M14.8664 6.92001L13.8264 5.87997C13.1998 5.25331 13.1998 4.24004 13.8264 3.61337L14.8664 2.57333C15.4931 1.94667 16.5064 1.94667 17.1331 2.57333L18.1731 3.61337C18.7998 4.24004 18.7998 5.25331 18.1731 5.87997L17.1331 6.92001C16.5064 7.54668 15.4931 7.54668 14.8664 6.92001Z" stroke="#5840BA" stroke-width="2" stroke-linecap="round" stroke-linejoin="round"/>
<path d="M25.933 13.0801H27.3997C28.2797 13.0801 28.9997 13.8001 28.9997 14.6801V16.1467C28.9997 17.0267 28.2797 17.7468 27.3997 17.7468H25.933C25.053 17.7468 24.333 17.0267 24.333 16.1467V14.6801C24.333 13.8001 25.053 13.0801 25.933 13.0801Z" stroke="#5840BA" stroke-width="2" stroke-linecap="round" stroke-linejoin="round"/>
<path d="M6.06667 13.08H4.6C3.72 13.08 3 13.8 3 14.68V16.1467C3 17.0267 3.72 17.7468 4.6 17.7468H6.06667C6.94667 17.7468 7.66667 17.0267 7.66667 16.1467V14.68C7.66667 13.8 6.94667 13.08 6.06667 13.08Z" stroke="#5840BA" stroke-width="2" stroke-linecap="round" stroke-linejoin="round"/>
<path d="M24.72 13.4666L17.6533 6.39996" stroke="#5840BA" stroke-width="2" stroke-linecap="round" stroke-linejoin="round"/>
<path d="M7.28027 13.4666L14.3469 6.3999" stroke="#5840BA" stroke-width="2" stroke-linecap="round" stroke-linejoin="round"/>
</svg>
