<svg width="32" height="32" viewBox="0 0 32 32" fill="none" xmlns="http://www.w3.org/2000/svg">
<path d="M30.6661 20.495V23.415C30.6661 26.6684 28.2928 29.735 25.0661 30.6284C24.8395 30.6817 24.5995 30.6817 24.3861 30.6284C22.8128 30.2017 21.4261 29.2417 20.4528 28.0017C19.3995 26.695 18.7861 25.0817 18.7861 23.415V20.495C18.7861 19.935 19.1995 19.3217 19.7061 19.1084L23.4128 17.5884C24.2528 17.255 25.1861 17.255 26.0261 17.5884L27.3595 18.135L29.7461 19.1084C30.2528 19.3217 30.6661 19.935 30.6661 20.495Z" fill="#5840BA"/>
<path d="M27.9324 14.6818L27.6924 16.1085L26.7591 15.7351C25.4391 15.2018 23.9991 15.2018 22.6524 15.7351L18.9324 17.2685C17.6657 17.8018 16.7857 19.1218 16.7857 20.4951V23.4151C16.7857 25.0018 17.2257 26.5885 18.0391 28.0018H8.23907C6.4124 28.0018 4.6924 26.5485 4.38574 24.7485L2.70574 14.6818C2.4924 13.4418 3.11907 11.7751 4.10574 10.9884L12.8791 3.97509C14.2257 2.89509 16.4124 2.89509 17.7591 3.98842L26.5324 10.9884C27.5057 11.7751 28.1457 13.4418 27.9324 14.6818Z" fill="#5840BA"/>
</svg>
