<svg width="34" height="34" viewBox="0 0 34 34" fill="none" xmlns="http://www.w3.org/2000/svg">
<path d="M29.6219 15.7536V9.53445C29.6219 8.37278 28.7436 7.05528 27.6527 6.61611L19.7619 3.38611C17.9911 2.66361 15.9936 2.66361 14.2227 3.38611L6.33195 6.61611C5.25529 7.05528 4.37695 8.37278 4.37695 9.53445V15.7536C4.37695 22.6811 9.40612 29.1694 16.2769 31.0678C16.7444 31.1953 17.2544 31.1953 17.7219 31.0678C24.5927 29.1694 29.6219 22.6811 29.6219 15.7536ZM18.0619 18.2328V21.9586C18.0619 22.5394 17.5802 23.0211 16.9994 23.0211C16.4186 23.0211 15.9369 22.5394 15.9369 21.9586V18.2328C14.5061 17.7794 13.4578 16.4478 13.4578 14.8753C13.4578 12.9203 15.0444 11.3336 16.9994 11.3336C18.9544 11.3336 20.5411 12.9203 20.5411 14.8753C20.5411 16.4619 19.4927 17.7794 18.0619 18.2328Z" fill="#5840BA"/>
</svg>
