<svg width="32" height="32" viewBox="0 0 32 32" fill="none" xmlns="http://www.w3.org/2000/svg">
<path d="M17.3337 27.9999H8.00033C5.48617 27.9999 4.22909 27.9999 3.44805 27.2189C2.66699 26.4378 2.66699 25.1807 2.66699 22.6666C2.66699 20.1525 2.66699 18.8954 3.44805 18.1143C4.22909 17.3333 5.48617 17.3333 8.00033 17.3333H24.0003C26.5145 17.3333 27.7715 17.3333 28.5526 18.1143C29.3337 18.8954 29.3337 20.1525 29.3337 22.6666C29.3337 25.1807 29.3337 26.4378 28.5526 27.2189C27.7715 27.9999 26.5145 27.9999 24.0003 27.9999H22.667" stroke="#5840BA" stroke-width="2" stroke-linecap="round"/>
<path d="M14.667 2.66675H24.0003C26.5145 2.66675 27.7715 2.66675 28.5526 3.4478C29.3337 4.22884 29.3337 5.48592 29.3337 8.00008C29.3337 10.5142 29.3337 11.7713 28.5526 12.5524C27.7715 13.3334 26.5145 13.3334 24.0003 13.3334H8.00033C5.48617 13.3334 4.22909 13.3334 3.44805 12.5524C2.66699 11.7713 2.66699 10.5142 2.66699 8.00008C2.66699 5.48592 2.66699 4.22884 3.44805 3.4478C4.22909 2.66675 5.48617 2.66675 8.00033 2.66675H9.33366" stroke="#5840BA" stroke-width="2" stroke-linecap="round"/>
<path d="M14.667 8H24.0003" stroke="#5840BA" stroke-width="2" stroke-linecap="round"/>
<path d="M8 8H10.6667" stroke="#5840BA" stroke-width="2" stroke-linecap="round"/>
<path d="M14.667 22.6667H24.0003" stroke="#5840BA" stroke-width="2" stroke-linecap="round"/>
<path d="M8 22.6666H10.6667" stroke="#5840BA" stroke-width="2" stroke-linecap="round"/>
</svg>
