<svg width="32" height="32" viewBox="0 0 32 32" fill="none" xmlns="http://www.w3.org/2000/svg">
<path fill-rule="evenodd" clip-rule="evenodd" d="M10.667 7.99984C10.667 5.05432 13.0548 2.6665 16.0003 2.6665C18.9458 2.6665 21.3337 5.05432 21.3337 7.99984V8.30753C21.3337 9.0439 20.7367 9.64086 20.0003 9.64086C19.2639 9.64086 18.667 9.0439 18.667 8.30753V7.99984C18.667 6.52708 17.4731 5.33317 16.0003 5.33317C14.5275 5.33317 13.3337 6.52708 13.3337 7.99984V11.9998C13.3337 12.7362 12.7367 13.3332 12.0003 13.3332C11.264 13.3332 10.667 12.7362 10.667 11.9998V7.99984Z" fill="#5840BA"/>
<path fill-rule="evenodd" clip-rule="evenodd" d="M16.0003 10.6665C10.8457 10.6665 6.66699 14.8452 6.66699 19.9998C6.66699 25.1545 10.8457 29.3332 16.0003 29.3332C21.155 29.3332 25.3337 25.1545 25.3337 19.9998C25.3337 14.8452 21.155 10.6665 16.0003 10.6665ZM16.0003 17.3332C16.7367 17.3332 17.3337 17.9301 17.3337 18.6665V21.3332C17.3337 22.0696 16.7367 22.6665 16.0003 22.6665C15.2639 22.6665 14.667 22.0696 14.667 21.3332V18.6665C14.667 17.9301 15.2639 17.3332 16.0003 17.3332Z" fill="#5840BA"/>
</svg>
